# xmcd CD database file
#
# Track frame offsets:
#	150
#	18983
#	39350
#
# Disc length: 784 seconds
#
# Revision: 4
# Processed by: cddbd v1.5.1PL2 Copyright (c) Steve Scherf et al.
# Submitted via: CDex 1.40Beta9
#
DISCID=17030e03
DTITLE=THC!! - JUMP!! - TIMEシャワーに射たれて…
DYEAR=2005
DGENRE=J-Pop
TTITLE0=JUMP!!
TTITLE1=TIMEシャワーに射たれて…
TTITLE2=新世界
EXTD=YEAR: 2005/11/23
EXTT0=
EXTT1=
EXTT2=
PLAYORDER=
